<svg width="33" height="32" viewBox="0 0 33 32" fill="none" xmlns="http://www.w3.org/2000/svg">
<rect x="0.40918" width="32" height="32" rx="16" fill="#01CF8E"/>
<path d="M15.8467 20.6875H14.1592C13.3342 20.6875 12.6592 21.3625 12.6592 22.1875V22.375H11.9092C11.6017 22.375 11.3467 22.63 11.3467 22.9375C11.3467 23.245 11.6017 23.5 11.9092 23.5H20.9092C21.2167 23.5 21.4717 23.245 21.4717 22.9375C21.4717 22.63 21.2167 22.375 20.9092 22.375H20.1592V22.1875C20.1592 21.3625 19.4842 20.6875 18.6592 20.6875H16.9717V18.97C16.7842 18.9925 16.5967 19 16.4092 19C16.2217 19 16.0342 18.9925 15.8467 18.97V20.6875Z" fill="#DCFBF1"/>
<path d="M21.2691 15.73C21.7641 15.5425 22.1991 15.235 22.5441 14.89C23.2416 14.1175 23.6991 13.195 23.6991 12.115C23.6991 11.035 22.8516 10.1875 21.7716 10.1875H21.3516C20.8641 9.19 19.8441 8.5 18.6591 8.5H14.1591C12.9741 8.5 11.9541 9.19 11.4666 10.1875H11.0466C9.96664 10.1875 9.11914 11.035 9.11914 12.115C9.11914 13.195 9.57664 14.1175 10.2741 14.89C10.6191 15.235 11.0541 15.5425 11.5491 15.73C12.3291 17.65 14.2041 19 16.4091 19C18.6141 19 20.4891 17.65 21.2691 15.73ZM18.5391 13.3375L18.0741 13.9075C17.9991 13.99 17.9466 14.155 17.9541 14.2675L17.9991 15.0025C18.0291 15.4525 17.7066 15.685 17.2866 15.52L16.6041 15.25C16.4991 15.2125 16.3191 15.2125 16.2141 15.25L15.5316 15.52C15.1116 15.685 14.7891 15.4525 14.8191 15.0025L14.8641 14.2675C14.8716 14.155 14.8191 13.99 14.7441 13.9075L14.2791 13.3375C13.9866 12.9925 14.1141 12.61 14.5491 12.4975L15.2616 12.3175C15.3741 12.2875 15.5091 12.1825 15.5691 12.085L15.9666 11.47C16.2141 11.0875 16.6041 11.0875 16.8516 11.47L17.2491 12.085C17.3091 12.1825 17.4441 12.2875 17.5566 12.3175L18.2691 12.4975C18.7041 12.61 18.8316 12.9925 18.5391 13.3375Z" fill="#DCFBF1"/>
</svg>
