<svg width="32" height="31" viewBox="0 0 32 31" fill="none" xmlns="http://www.w3.org/2000/svg">
<path d="M22.3286 24C22.3286 24 21.5417 23.1302 20.8862 22.3613C23.7471 21.6131 24.84 19.9537 24.84 19.9537C24.0543 20.4381 23.2117 20.8385 22.3286 21.1471C21.312 21.5487 20.2488 21.8405 19.1601 22.0169C17.2899 22.3361 15.3717 22.3295 13.5041 21.9976C12.4071 21.7988 11.3321 21.5076 10.2923 21.1277C9.7444 20.9311 9.21161 20.7001 8.69764 20.4363C8.63194 20.3962 8.56774 20.3755 8.50204 20.3354C8.46855 20.3208 8.43858 20.3001 8.41394 20.2745C8.02125 20.0726 7.80325 19.9315 7.80325 19.9315C7.80325 19.9315 8.84845 21.5495 11.6257 22.3184C10.9702 23.0873 10.1609 23.9972 10.1609 23.9972C5.33358 23.8589 3.5 20.9217 3.5 20.9217C3.5 14.4083 6.64457 9.12843 6.64457 9.12843C9.79062 6.94347 12.7829 7.00432 12.7829 7.00432L13.0009 7.24632C9.06943 8.30147 7.25675 9.90008 7.25675 9.90008C7.25675 9.90008 7.73755 9.6567 8.54534 9.31374C10.8821 8.36231 12.7396 8.09956 13.5041 8.03872C13.626 8.01506 13.7499 8.00164 13.8744 7.99861C15.3381 7.82166 16.8194 7.80773 18.2866 7.95713C20.5919 8.19972 22.8237 8.8574 24.8565 9.89317C24.8565 9.89317 23.1319 8.37199 19.4184 7.32376L19.7171 7.00017C19.7171 7.00017 22.7033 6.93932 25.8539 9.12428C25.8539 9.12428 28.9999 14.4041 28.9999 20.9175C29.0119 20.9245 27.1544 23.8548 22.3286 24ZM12.1752 14.5521C10.9299 14.5521 9.9474 15.5644 9.9474 16.7979C9.9474 18.0315 10.9523 19.0437 12.1752 19.0437C13.4205 19.0437 14.403 18.0315 14.403 16.7979C14.4253 15.5644 13.4205 14.5521 12.1752 14.5521ZM20.1486 14.5521C18.9033 14.5521 17.9208 15.5644 17.9208 16.7979C17.9208 18.0315 18.9242 19.0437 20.1486 19.0437C21.373 19.0437 22.3763 18.0315 22.3763 16.7979C22.3763 15.5644 21.3924 14.5521 20.1486 14.5521Z" fill="white"/>
</svg>
