<svg width="155" height="30" viewBox="0 0 155 30" fill="none" xmlns="http://www.w3.org/2000/svg">
<g opacity="0.5" clip-path="url(#clip0_330_29202)">
<path d="M53.1496 22.403C51.8763 22.403 50.7533 22.12 49.7805 21.5542C48.8079 20.9705 48.0474 20.1658 47.4991 19.1401C46.9509 18.1143 46.6768 16.9206 46.6768 15.5588C46.6768 14.1793 46.9421 12.9679 47.4726 11.9244C48.0209 10.881 48.7813 10.0674 49.754 9.48386C50.7444 8.90021 51.8851 8.6084 53.1762 8.6084C54.4496 8.6084 55.546 8.90021 56.4657 9.48386C57.3853 10.0497 58.0927 10.8102 58.5879 11.7653C59.1008 12.7203 59.3572 13.7725 59.3572 14.9221C59.3572 15.0989 59.3572 15.2934 59.3572 15.5057C59.3572 15.7002 59.3484 15.9213 59.3307 16.1689H49.4357C49.5241 17.3892 49.9221 18.3177 50.6294 18.9544C51.3369 19.5733 52.1681 19.8829 53.1231 19.8829C53.9543 19.8829 54.6087 19.7149 55.0862 19.3788C55.5814 19.0251 55.9439 18.5476 56.1738 17.9463H59.0124C58.694 19.202 58.0308 20.263 57.0227 21.1297C56.0147 21.9786 54.7236 22.403 53.1496 22.403ZM53.1496 11.049C52.2831 11.049 51.5138 11.3142 50.8417 11.8449C50.1697 12.3577 49.7364 13.0828 49.5419 14.0201H56.5453C56.4745 13.1359 56.1297 12.4196 55.5106 11.8714C54.8917 11.3231 54.1047 11.049 53.1496 11.049Z" fill="white"/>
<path d="M67.1997 22.0847L61.4961 8.92673H64.6795L68.8975 19.1136L73.1419 8.92673H76.2988L70.5688 22.0847H67.1997Z" fill="white"/>
<path d="M84.9631 22.403C83.6898 22.403 82.5668 22.12 81.594 21.5542C80.6214 20.9705 79.8609 20.1658 79.3126 19.1401C78.7644 18.1143 78.4902 16.9206 78.4902 15.5588C78.4902 14.1793 78.7555 12.9679 79.2861 11.9244C79.8343 10.881 80.5948 10.0674 81.5675 9.48386C82.5579 8.90021 83.6986 8.6084 84.9896 8.6084C86.2629 8.6084 87.3595 8.90021 88.2791 9.48386C89.1987 10.0497 89.9062 10.8102 90.4014 11.7653C90.9143 12.7203 91.1707 13.7725 91.1707 14.9221C91.1707 15.0989 91.1707 15.2934 91.1707 15.5057C91.1707 15.7002 91.1619 15.9213 91.1441 16.1689H81.2492C81.3376 17.3892 81.7355 18.3177 82.4429 18.9544C83.1504 19.5733 83.9815 19.8829 84.9366 19.8829C85.7678 19.8829 86.4221 19.7149 86.8997 19.3788C87.3949 19.0251 87.7574 18.5476 87.9873 17.9463H90.8259C90.5075 19.202 89.8443 20.263 88.8362 21.1297C87.8281 21.9786 86.5371 22.403 84.9631 22.403ZM84.9631 11.049C84.0965 11.049 83.3272 11.3142 82.6552 11.8449C81.9831 12.3577 81.5499 13.0828 81.3553 14.0201H88.3587C88.288 13.1359 87.9431 12.4196 87.3241 11.8714C86.7052 11.3231 85.9181 11.049 84.9631 11.049Z" fill="white"/>
<path d="M94.7949 22.0847V19.6441H98.0049V12.2427C98.0049 11.6591 97.7218 11.3673 97.1565 11.3673H95.0602V8.92674H98.2168C98.9424 8.92674 99.5349 9.13896 99.9943 9.56345C100.455 9.97014 100.684 10.5449 100.684 11.2877V11.6061H100.816C101.011 10.6157 101.427 9.87292 102.063 9.37773C102.718 8.86483 103.665 8.6084 104.902 8.6084H106.945V11.5795H104.08C103.036 11.5795 102.232 11.9421 101.666 12.6672C101.1 13.3923 100.816 14.2589 100.816 15.2669V19.6441H104.902V22.0847H94.7949Z" fill="white"/>
<path d="M116.722 22.403C114.99 22.403 113.61 21.9963 112.584 21.1827C111.559 20.3692 110.975 19.2904 110.834 17.9463H113.725C113.831 18.5653 114.141 19.0693 114.653 19.4584C115.184 19.8474 115.882 20.042 116.75 20.042C117.58 20.042 118.217 19.874 118.659 19.538C119.12 19.1843 119.349 18.7775 119.349 18.3177C119.349 17.6456 119.075 17.1858 118.527 16.9382C117.996 16.6906 117.209 16.505 116.166 16.3811C115.264 16.275 114.441 16.0717 113.699 15.771C112.973 15.4526 112.399 15.0282 111.974 14.4976C111.55 13.9494 111.337 13.2685 111.337 12.455C111.337 11.3054 111.788 10.3769 112.69 9.66948C113.592 8.96211 114.848 8.6084 116.457 8.6084C118.067 8.6084 119.314 8.97095 120.198 9.69601C121.082 10.4212 121.596 11.4115 121.736 12.6672H119.031C118.96 12.1366 118.686 11.721 118.208 11.4204C117.731 11.1021 117.139 10.9429 116.431 10.9429C115.706 10.9429 115.131 11.0844 114.707 11.3673C114.282 11.6326 114.07 11.9863 114.07 12.4284C114.07 13.3835 115.096 13.9671 117.147 14.1793C118.12 14.2854 118.986 14.4711 119.747 14.7364C120.507 14.984 121.109 15.3819 121.551 15.9302C121.993 16.4607 122.214 17.2123 122.214 18.1851C122.232 18.9809 122.001 19.6972 121.524 20.3338C121.065 20.9705 120.419 21.4746 119.587 21.8459C118.775 22.2174 117.819 22.403 116.722 22.403Z" fill="white"/>
<path d="M132.523 22.403C131.268 22.403 130.144 22.12 129.154 21.5542C128.164 20.9882 127.385 20.1924 126.819 19.1666C126.254 18.1232 125.971 16.9029 125.971 15.5057C125.971 14.1085 126.254 12.8971 126.819 11.8714C127.385 10.8279 128.164 10.0232 129.154 9.45732C130.144 8.89136 131.276 8.6084 132.549 8.6084C133.823 8.6084 134.946 8.89136 135.919 9.45732C136.909 10.0232 137.678 10.8279 138.227 11.8714C138.793 12.8971 139.075 14.1085 139.075 15.5057C139.075 16.9029 138.793 18.1232 138.227 19.1666C137.66 20.1924 136.882 20.9882 135.892 21.5542C134.919 22.12 133.796 22.403 132.523 22.403ZM132.523 19.7237C133.195 19.7237 133.814 19.5733 134.38 19.2727C134.946 18.972 135.397 18.5123 135.733 17.8932C136.086 17.2566 136.264 16.4607 136.264 15.5057C136.264 14.533 136.086 13.7372 135.733 13.1182C135.397 12.4992 134.946 12.0394 134.38 11.7387C133.832 11.4381 133.221 11.2877 132.549 11.2877C131.878 11.2877 131.258 11.4381 130.693 11.7387C130.127 12.0394 129.667 12.4992 129.313 13.1182C128.977 13.7372 128.809 14.533 128.809 15.5057C128.809 16.9559 129.171 18.0259 129.897 18.7156C130.639 19.3877 131.515 19.7237 132.523 19.7237Z" fill="white"/>
<path d="M142.275 22.0847V19.6441H146.68V6.30045C146.68 5.71683 146.397 5.42502 145.83 5.42502H142.647V2.98444H146.335C147.36 2.98444 148.139 3.25855 148.669 3.8068C149.218 4.33737 149.491 5.11552 149.491 6.14128V19.6441H153.922V22.0847H142.275Z" fill="white"/>
<path fill-rule="evenodd" clip-rule="evenodd" d="M27.0065 1.65802L33.5225 12.9324C33.8843 13.5619 34.0737 14.2757 34.0714 15.0018C34.069 15.7279 33.8751 16.4405 33.5092 17.0676L26.9932 28.342C26.7028 28.8451 26.2852 29.2631 25.7824 29.554C25.2796 29.845 24.7091 29.9988 24.1282 30H11.1128C10.3904 29.9987 9.68103 29.8077 9.05549 29.4464C8.42996 29.085 7.9102 28.5659 7.54813 27.9408L1.03215 16.6497C0.741111 16.1456 0.587891 15.5738 0.587891 14.9918C0.587891 14.4097 0.741111 13.8378 1.03215 13.3337L7.54813 2.05926C7.90992 1.43462 8.42916 0.915759 9.05406 0.554433C9.67896 0.193106 10.3877 0.00194112 11.1095 6.4591e-06H24.1282C24.7114 -0.00114445 25.2845 0.15153 25.79 0.442629C26.2953 0.733728 26.7149 1.15296 27.0065 1.65802ZM10.6027 19.2036C10.4107 19.2036 10.2297 19.2818 10.0981 19.4161L6.65864 22.9229C6.43375 23.1522 6.59282 23.5437 6.91098 23.5437H24.3219C24.5139 23.5437 24.695 23.4654 24.8266 23.3312L28.266 19.8244C28.4909 19.5951 28.3319 19.2036 28.0137 19.2036H10.6027ZM10.0981 6.51297C10.2352 6.37874 10.4162 6.30044 10.6027 6.30044H28.0137C28.3319 6.30044 28.4909 6.69195 28.266 6.92126L24.8266 10.4281C24.695 10.5622 24.5139 10.6406 24.3219 10.6406H6.91098C6.59282 10.6406 6.43375 10.2491 6.65864 10.0198L10.0981 6.51297ZM24.3219 12.7521C24.5139 12.7521 24.695 12.8282 24.8266 12.9588L28.266 16.3708C28.4909 16.5939 28.3319 16.9748 28.0137 16.9748H10.6027C10.4107 16.9748 10.2297 16.8987 10.0981 16.7681L6.65864 13.3561C6.43375 13.133 6.59282 12.7521 6.91098 12.7521H24.3219Z" fill="white"/>
</g>
<defs>
<clipPath id="clip0_330_29202">
<rect width="153.75" height="30" fill="white" transform="translate(0.587891)"/>
</clipPath>
</defs>
</svg>
