<svg width="20" height="20" viewBox="0 0 20 20" fill="none" xmlns="http://www.w3.org/2000/svg">
<path d="M18.05 8.69992L17.2333 12.1833C16.5333 15.1916 15.15 16.4083 12.55 16.1583C12.1333 16.1249 11.6833 16.0499 11.2 15.9333L9.8 15.5999C6.325 14.7749 5.25 13.0583 6.06667 9.57493L6.88333 6.08326C7.05 5.37493 7.25 4.75826 7.5 4.24993C8.475 2.23326 10.1333 1.69159 12.9167 2.34993L14.3083 2.67493C17.8 3.49159 18.8667 5.21659 18.05 8.69992Z" stroke="#A9A9A9" stroke-width="1.5" stroke-linecap="round" stroke-linejoin="round"/>
<path d="M12.55 16.1583C12.0333 16.5083 11.3833 16.8 10.5917 17.0583L9.275 17.4917C5.96667 18.5583 4.225 17.6667 3.15 14.3583L2.08333 11.0667C1.01667 7.75833 1.9 6.00833 5.20833 4.94167L6.525 4.50833C6.86667 4.4 7.19167 4.30833 7.5 4.25C7.25 4.75833 7.05 5.375 6.88333 6.08333L6.06667 9.575C5.25 13.0583 6.325 14.775 9.8 15.6L11.2 15.9333C11.6833 16.05 12.1333 16.125 12.55 16.1583Z" stroke="#A9A9A9" stroke-width="1.5" stroke-linecap="round" stroke-linejoin="round"/>
<path d="M10.5333 7.1084L14.575 8.1334" stroke="#A9A9A9" stroke-width="1.5" stroke-linecap="round" stroke-linejoin="round"/>
<path d="M9.71667 10.3333L12.1333 10.9499" stroke="#A9A9A9" stroke-width="1.5" stroke-linecap="round" stroke-linejoin="round"/>
</svg>
