<svg width="46" height="50" viewBox="0 0 46 50" fill="none" xmlns="http://www.w3.org/2000/svg">
<g opacity="0.5" clip-path="url(#clip0_330_29211)">
<path fill-rule="evenodd" clip-rule="evenodd" d="M44.6299 7.78924C35.4808 7.78924 28.4717 5.35879 22.5439 0C16.6177 5.35879 9.60865 7.78924 0.459354 7.78924C0.459354 9.12992 0.430696 10.5263 0.40122 11.9625C0.123878 25.476 -0.225828 42.5156 22.5439 49.8542C45.3153 42.5156 44.9655 25.4764 44.6881 11.9629V11.9627V11.9625V11.9623V11.9621V11.9619V11.9617V11.9615V11.9613V11.9611C44.6586 10.5254 44.6299 9.12949 44.6299 7.78924ZM21.6734 40.3545C20.2827 40.3545 18.9997 40.1 17.8245 39.5905C16.6688 39.0617 15.7188 38.3174 14.9745 37.3577L17.6188 34.1845C18.7353 35.6928 20.0085 36.4469 21.4384 36.4469C23.3776 36.4469 24.3471 35.3108 24.3471 33.0386V23.2547H17.1193V19.4351H29.0775V32.7742C29.0775 35.301 28.4507 37.201 27.1971 38.4742C25.9435 39.7276 24.1023 40.3545 21.6734 40.3545ZM8.6472 15.4484C8.81084 15.5272 8.98811 15.5666 9.17902 15.5666C9.50629 15.5666 9.75326 15.4787 9.91993 15.303C10.0896 15.1242 10.1745 14.859 10.1745 14.5075V12.3484H8.57448V12.7439H9.72447V14.5302C9.72447 14.7424 9.6775 14.903 9.58357 15.0121C9.49266 15.1212 9.35781 15.1757 9.17902 15.1757C8.91235 15.1757 8.69114 15.0499 8.51538 14.7984L8.25175 15.1075C8.35175 15.253 8.48357 15.3666 8.6472 15.4484ZM12.3413 12.3484C12.7534 12.3484 13.0777 12.4469 13.314 12.6439C13.5504 12.8409 13.6686 13.1121 13.6686 13.4575C13.6686 13.803 13.5504 14.0742 13.314 14.2712C13.0777 14.4681 12.7534 14.5666 12.3413 14.5666H11.5549V15.5302H11.1004V12.3484H12.3413ZM12.3277 14.1712C12.6155 14.1712 12.8352 14.1106 12.9867 13.9893C13.1383 13.8651 13.214 13.6878 13.214 13.4575C13.214 13.2272 13.1383 13.0515 12.9867 12.9302C12.8352 12.806 12.6155 12.7439 12.3277 12.7439H11.5549V14.1712H12.3277ZM14.9491 15.3575C15.2067 15.4969 15.4961 15.5666 15.8173 15.5666C16.1355 15.5666 16.4234 15.4969 16.681 15.3575C16.9385 15.2151 17.14 15.0212 17.2855 14.7757C17.431 14.5272 17.5037 14.2484 17.5037 13.9394C17.5037 13.6303 17.431 13.353 17.2855 13.1075C17.14 12.8591 16.9385 12.6651 16.681 12.5257C16.4234 12.3833 16.1355 12.3121 15.8173 12.3121C15.4961 12.3121 15.2067 12.3833 14.9491 12.5257C14.6916 12.6651 14.4885 12.8591 14.34 13.1075C14.1946 13.356 14.1219 13.6333 14.1219 13.9394C14.1219 14.2454 14.1946 14.5227 14.34 14.7712C14.4885 15.0197 14.6916 15.2151 14.9491 15.3575ZM16.4446 15.003C16.2597 15.1091 16.0507 15.1621 15.8173 15.1621C15.584 15.1621 15.3719 15.1091 15.181 15.003C14.9931 14.8969 14.8446 14.7515 14.7355 14.5666C14.6294 14.3788 14.5764 14.1697 14.5764 13.9394C14.5764 13.7091 14.6294 13.5015 14.7355 13.3166C14.8446 13.1288 14.9931 12.9818 15.181 12.8757C15.3719 12.7697 15.584 12.7166 15.8173 12.7166C16.0507 12.7166 16.2597 12.7697 16.4446 12.8757C16.6325 12.9818 16.7794 13.1288 16.8855 13.3166C16.9946 13.5015 17.0491 13.7091 17.0491 13.9394C17.0491 14.1697 16.9946 14.3788 16.8855 14.5666C16.7794 14.7515 16.6325 14.8969 16.4446 15.003ZM19.6347 15.5666C19.3135 15.5666 19.0241 15.4969 18.7665 15.3575C18.5089 15.2151 18.3059 15.0197 18.1574 14.7712C18.012 14.5227 17.9392 14.2454 17.9392 13.9394C17.9392 13.6333 18.012 13.356 18.1574 13.1075C18.3059 12.8591 18.5089 12.6651 18.7665 12.5257C19.0241 12.3833 19.3135 12.3121 19.6347 12.3121C19.9529 12.3121 20.2408 12.3833 20.4983 12.5257C20.7559 12.6651 20.9574 12.8591 21.1029 13.1075C21.2483 13.353 21.3211 13.6303 21.3211 13.9394C21.3211 14.2484 21.2483 14.5272 21.1029 14.7757C20.9574 15.0212 20.7559 15.2151 20.4983 15.3575C20.2408 15.4969 19.9529 15.5666 19.6347 15.5666ZM19.6347 15.1621C19.868 15.1621 20.0771 15.1091 20.262 15.003C20.4499 14.8969 20.5968 14.7515 20.7029 14.5666C20.812 14.3788 20.8665 14.1697 20.8665 13.9394C20.8665 13.7091 20.812 13.5015 20.7029 13.3166C20.5968 13.1288 20.4499 12.9818 20.262 12.8757C20.0771 12.7697 19.868 12.7166 19.6347 12.7166C19.4014 12.7166 19.1892 12.7697 18.9983 12.8757C18.8105 12.9818 18.662 13.1288 18.5529 13.3166C18.4468 13.5015 18.3938 13.7091 18.3938 13.9394C18.3938 14.1697 18.4468 14.3788 18.5529 14.5666C18.662 14.7515 18.8105 14.8969 18.9983 15.003C19.1892 15.1091 19.4014 15.1621 19.6347 15.1621ZM22.4699 12.3484H22.0154V15.5302H24.1926V15.1348H22.4699V12.3484ZM24.8927 15.5575C24.8079 15.5575 24.7352 15.5287 24.6746 15.4712C24.6139 15.4106 24.5836 15.3348 24.5836 15.2439C24.5836 15.156 24.6139 15.0833 24.6746 15.0257C24.7352 14.9651 24.8079 14.9348 24.8927 14.9348C24.9776 14.9348 25.0488 14.9636 25.1064 15.0212C25.1639 15.0787 25.1927 15.153 25.1927 15.2439C25.1927 15.3348 25.1624 15.4106 25.1018 15.4712C25.0442 15.5287 24.9746 15.5575 24.8927 15.5575ZM26.3612 15.3575C26.6188 15.4969 26.9082 15.5666 27.2294 15.5666C27.5476 15.5666 27.8355 15.4969 28.093 15.3575C28.3506 15.2151 28.5521 15.0212 28.6976 14.7757C28.843 14.5272 28.9158 14.2484 28.9158 13.9394C28.9158 13.6303 28.843 13.353 28.6976 13.1075C28.5521 12.8591 28.3506 12.6651 28.093 12.5257C27.8355 12.3833 27.5476 12.3121 27.2294 12.3121C26.9082 12.3121 26.6188 12.3833 26.3612 12.5257C26.1036 12.6651 25.9006 12.8591 25.7521 13.1075C25.6067 13.356 25.5339 13.6333 25.5339 13.9394C25.5339 14.2454 25.6067 14.5227 25.7521 14.7712C25.9006 15.0197 26.1036 15.2151 26.3612 15.3575ZM27.8567 15.003C27.6718 15.1091 27.4627 15.1621 27.2294 15.1621C26.9961 15.1621 26.7839 15.1091 26.593 15.003C26.4052 14.8969 26.2567 14.7515 26.1476 14.5666C26.0415 14.3788 25.9885 14.1697 25.9885 13.9394C25.9885 13.7091 26.0415 13.5015 26.1476 13.3166C26.2567 13.1288 26.4052 12.9818 26.593 12.8757C26.7839 12.7697 26.9961 12.7166 27.2294 12.7166C27.4627 12.7166 27.6718 12.7697 27.8567 12.8757C28.0445 12.9818 28.1915 13.1288 28.2976 13.3166C28.4067 13.5015 28.4612 13.7091 28.4612 13.9394C28.4612 14.1697 28.4067 14.3788 28.2976 14.5666C28.1915 14.7515 28.0445 14.8969 27.8567 15.003ZM32.3467 12.3484V15.5302H31.974L30.0649 13.1575V15.5302H29.6103V12.3484H29.9831L31.8922 14.7212V12.3484H32.3467ZM35.6077 15.5302V15.1348H33.7532V14.1075H35.3486V13.7212H33.7532V12.7439H35.5441V12.3484H33.2986V15.5302H35.6077Z" fill="white"/>
</g>
<defs>
<clipPath id="clip0_330_29211">
<rect width="44.697" height="50" fill="white" transform="translate(0.337891)"/>
</clipPath>
</defs>
</svg>
