<svg width="123" height="30" viewBox="0 0 123 30" fill="none" xmlns="http://www.w3.org/2000/svg">
<g opacity="0.5">
<path d="M4.61424 8.9702L10.0927 1.49951C10.6376 0.756538 11.7472 0.756538 12.292 1.49951L17.7705 8.9702C18.2585 9.63563 18.0483 10.5786 17.3239 10.9737L11.8454 13.962C11.4383 14.184 10.9464 14.184 10.5394 13.962L5.0609 10.9737C4.33648 10.5786 4.12625 9.63563 4.61424 8.9702Z" stroke="white" stroke-width="1.36364"/>
<path d="M10.5451 17.379L2.59051 13.0957C2.44946 13.0198 2.27413 13.079 2.21718 13.2287C0.361837 18.1073 2.49511 27.9545 11.1916 27.9544C18.5508 27.9542 21.9719 18.1085 20.1658 13.2295C20.1102 13.0792 19.9347 13.0198 19.7936 13.0957L11.8381 17.379C11.4345 17.5963 10.9487 17.5963 10.5451 17.379Z" fill="white"/>
<path d="M47.3148 22H35.882V5.87636H39.1329V18.9018H47.3148V22ZM59.2301 22V5.87636H62.481V22H59.2301ZM82.0623 22H75.8877V5.87636H82.1932C84.6223 5.87636 86.5205 6.60364 87.8877 8.05818C89.2695 9.51273 89.9605 11.4836 89.9605 13.9709C89.9605 16.4582 89.255 18.4145 87.8441 19.84C86.4477 21.28 84.5205 22 82.0623 22ZM79.1168 8.97455V18.9018H82.215C83.5968 18.9018 84.6732 18.4291 85.4441 17.4836C86.215 16.5382 86.6005 15.3455 86.6005 13.9055C86.6005 12.5091 86.215 11.3382 85.4441 10.3927C84.6732 9.44727 83.5968 8.97455 82.215 8.97455H79.1168ZM109.936 22.2618C107.536 22.2618 105.543 21.4691 103.957 19.8836C102.357 18.2836 101.557 16.32 101.557 13.9927C101.557 11.6509 102.365 9.66545 103.979 8.03636C105.608 6.40727 107.601 5.59273 109.957 5.59273C112.314 5.59273 114.299 6.40727 115.914 8.03636C117.543 9.66545 118.357 11.6364 118.357 13.9491C118.357 16.2618 117.543 18.2255 115.914 19.84C114.299 21.4545 112.307 22.2618 109.936 22.2618ZM114.997 13.9491C114.997 12.4655 114.51 11.2364 113.536 10.2618C112.547 9.27273 111.354 8.77818 109.957 8.77818C108.561 8.77818 107.368 9.27273 106.379 10.2618C105.405 11.2364 104.917 12.4655 104.917 13.9491C104.917 15.4182 105.397 16.64 106.357 17.6145C107.332 18.5891 108.532 19.0764 109.957 19.0764C111.383 19.0764 112.583 18.5891 113.557 17.6145C114.532 16.64 115.012 15.4182 114.997 13.9491Z" fill="white"/>
</g>
</svg>
