<svg width="20" height="20" viewBox="0 0 20 20" fill="none" xmlns="http://www.w3.org/2000/svg">
<path d="M18.3333 3.89174V13.9501C18.3333 14.7501 17.6833 15.5001 16.8833 15.6001L16.6083 15.6334C14.7917 15.8751 11.9916 16.8001 10.3916 17.6834C10.175 17.8084 9.81666 17.8084 9.59166 17.6834L9.5583 17.6668C7.9583 16.7918 5.16668 15.8751 3.35835 15.6334L3.11665 15.6001C2.31665 15.5001 1.66666 14.7501 1.66666 13.9501V3.8834C1.66666 2.89173 2.47497 2.14174 3.46663 2.22508C5.21663 2.36674 7.86663 3.2501 9.34997 4.1751L9.5583 4.30007C9.79997 4.45007 10.2 4.45007 10.4417 4.30007L10.5833 4.20841C11.1083 3.88341 11.775 3.55841 12.5 3.26674V6.66676L14.1667 5.55841L15.8333 6.66676V2.31678C16.0583 2.27511 16.275 2.25008 16.475 2.23342H16.525C17.5167 2.15008 18.3333 2.89174 18.3333 3.89174Z" stroke="#A9A9A9" stroke-width="1.5" stroke-linecap="round" stroke-linejoin="round"/>
<path d="M10 4.57495V17.075" stroke="#A9A9A9" stroke-width="1.5" stroke-linecap="round" stroke-linejoin="round"/>
<path d="M15.8333 2.31665V6.66663L14.1667 5.55828L12.5 6.66663V3.26661C13.5917 2.83328 14.8083 2.48332 15.8333 2.31665Z" stroke="#A9A9A9" stroke-width="1.5" stroke-linecap="round" stroke-linejoin="round"/>
</svg>
