<svg width="185" height="30" viewBox="0 0 185 30" fill="none" xmlns="http://www.w3.org/2000/svg">
<g opacity="0.5" clip-path="url(#clip0_330_29191)">
<path d="M116.233 11.242V11.2362C116.619 11.6031 117.216 11.7866 118.023 11.7866C118.83 11.7866 119.477 11.5684 119.966 11.1322C120.211 10.9069 120.404 10.6313 120.531 10.3245C120.657 10.0177 120.715 9.68723 120.699 9.3561C120.714 9.08463 120.662 8.81369 120.55 8.56583C120.437 8.31798 120.267 8.10038 120.052 7.93113C119.562 7.5776 118.966 7.39968 118.361 7.42658C117.658 7.40269 116.97 7.63552 116.429 8.0809C116.182 8.27705 115.983 8.5263 115.847 8.80982C115.712 9.09334 115.643 9.4037 115.646 9.71743C115.629 9.99865 115.672 10.2803 115.773 10.5436C115.875 10.8069 116.031 11.0457 116.233 11.2442V11.242Z" fill="white"/>
<path d="M184.75 21.757C184.683 21.6421 184.586 21.5471 184.47 21.4822C184.353 21.4172 184.221 21.3845 184.087 21.3876C183.917 21.3929 183.751 21.4355 183.6 21.5125C183.449 21.5894 183.317 21.6988 183.214 21.8326C182.322 22.9116 181.229 23.8104 179.994 24.4797C178.755 25.1539 177.649 25.4907 176.678 25.4903C175.169 25.4903 174.145 24.9985 173.607 24.0151C176.151 23.3938 177.957 22.5543 179.025 21.4967C179.54 21.005 179.947 20.4139 180.223 19.76C180.498 19.106 180.636 18.403 180.627 17.6944C180.627 16.4366 180.249 15.4369 179.494 14.6954C178.739 13.9538 177.737 13.583 176.488 13.583C175.145 13.5661 173.83 13.9585 172.719 14.707C171.596 15.4707 170.697 16.5171 170.117 17.7387C169.296 19.4452 169.003 21.3543 169.274 23.2256C168.891 23.6269 168.494 24.0146 168.084 24.3888C167.48 24.8977 166.888 25.1587 166.305 25.1587C165.847 25.1616 165.473 24.8939 165.183 24.3554C164.893 23.8169 164.704 22.927 164.615 21.6857C166.49 18.537 168.082 15.2308 169.372 11.8054C170.557 8.59781 170.822 7.42657 170.822 5.03247C170.822 3.34432 170.515 2.08414 169.9 1.25194C169.285 0.419736 168.513 0.00242342 167.584 0C165.704 0.00436216 164.186 1.47489 163.031 4.41159C161.877 7.34805 161.424 9.26376 161.016 13.4165C159.453 13.5752 157.962 14.1458 156.697 15.0691C155.409 16.0047 154.371 17.2381 153.672 18.662C152.959 20.0947 152.583 21.6693 152.573 23.267C152.221 23.6426 151.858 24.0083 151.486 24.3641C150.904 24.889 150.408 25.1517 149.998 25.1522C149.878 25.1548 149.758 25.1299 149.649 25.0795C149.54 25.0291 149.444 24.9544 149.368 24.8614C149.198 24.6413 149.112 24.3684 149.126 24.0915C149.126 23.1274 149.373 21.4165 149.869 18.9587C150.193 17.2652 150.355 16.196 150.355 15.751C150.355 15.0094 149.827 14.6387 148.769 14.6387C148.292 14.6375 147.816 14.6806 147.346 14.7673C147.29 14.4141 147.151 14.0789 146.94 13.7888C146.779 13.6063 146.46 13.5147 145.987 13.5147C144.466 13.5263 142.988 14.0155 141.765 14.912C140.417 15.8676 139.324 17.1335 138.578 18.601C137.825 20.0306 137.416 21.6142 137.385 23.227C137.019 23.6148 136.64 23.9919 136.25 24.3583C135.657 24.8832 135.146 25.1456 134.715 25.1456C134.089 25.1456 133.776 24.7179 133.775 23.8624C133.775 23.2634 133.98 22.0337 134.39 20.1735C134.865 17.9924 135.103 16.4848 135.103 15.6507C135.103 14.2592 134.402 13.5636 132.999 13.5641C132.288 13.5641 131.506 13.8103 130.653 14.3028C129.799 14.7952 128.931 15.6192 128.048 16.7747C127.042 18.1541 126.237 19.6662 125.654 21.267C125.721 20.4708 125.829 19.6786 125.977 18.8932C126.107 18.2505 126.28 17.5022 126.496 16.6482C126.818 15.45 126.98 14.6794 126.98 14.3362C126.994 14.2212 126.978 14.1046 126.932 13.9978C126.887 13.891 126.815 13.7977 126.722 13.727C126.441 13.6004 126.133 13.5454 125.825 13.567C125.028 13.567 124.413 13.7226 123.965 14.012C123.494 14.3403 123.156 14.8236 123.012 15.3759C122.261 17.7558 121.859 20.2301 121.817 22.7232C121.32 23.2835 120.801 23.8246 120.261 24.3466C119.68 24.8798 119.196 25.1464 118.807 25.1464C118.626 25.1584 118.445 25.1158 118.289 25.0242C118.133 24.9326 118.009 24.7962 117.932 24.6331C117.736 24.1667 117.648 23.6626 117.674 23.158C117.674 22.3243 117.933 20.7307 118.45 18.377C118.86 16.4305 119.065 15.1905 119.065 14.6568C119.065 13.9298 118.515 13.5663 117.416 13.5663C116.703 13.5663 116.193 13.6928 115.863 13.9509C115.533 14.209 115.276 14.6779 115.084 15.3635C114.678 16.7514 114.36 18.1632 114.131 19.5904C113.91 20.8136 113.785 22.0522 113.759 23.2946C113.759 24.9203 114.077 26.2248 114.712 27.2082C115.347 28.1916 116.369 28.6826 117.777 28.6812C119.136 28.6812 120.57 27.9859 122.08 26.5953C122.136 26.8698 122.214 27.1394 122.314 27.4016C122.649 28.2571 123.225 28.6829 124.041 28.679C124.71 28.679 125.201 28.5009 125.512 28.1497C125.824 27.7986 126.099 27.1173 126.338 26.114C126.652 24.8379 127.081 23.5923 127.62 22.3924C128.047 21.401 128.566 20.4516 129.172 19.557C129.68 18.8411 130.073 18.4829 130.353 18.4825C130.59 18.4825 130.709 18.654 130.709 18.9914C130.709 19.5047 130.569 20.4355 130.288 21.7839C129.988 23.329 129.839 24.3983 129.839 24.9915C129.839 26.1867 130.119 27.1004 130.681 27.7324C131.242 28.3644 132.073 28.6795 133.173 28.6775C134.472 28.6956 135.744 28.3147 136.815 27.587C137.268 27.2729 137.702 26.9331 138.116 26.5692C138.251 26.8074 138.406 27.0336 138.581 27.2453C138.964 27.7151 139.452 28.0903 140.007 28.3416C140.561 28.5929 141.167 28.7134 141.776 28.6935C143.479 28.6935 144.892 27.7954 146.014 25.9992C146.27 26.7669 146.736 27.4493 147.36 27.9709C147.904 28.4353 148.598 28.6915 149.317 28.6935C150.245 28.6935 151.205 28.3191 152.197 27.5703C152.605 27.2577 152.996 26.9261 153.37 26.5757C153.511 26.8068 153.672 27.0256 153.85 27.23C154.247 27.6993 154.745 28.074 155.308 28.3266C155.87 28.5792 156.483 28.7031 157.101 28.6892C157.931 28.7067 158.752 28.5061 159.479 28.1075C160.158 27.7237 160.951 26.9644 161.858 25.8298C162.712 27.7341 163.963 28.6863 165.609 28.6863C166.645 28.6863 167.692 28.3065 168.749 27.547C169.341 27.1197 169.902 26.6515 170.427 26.146C170.616 26.4021 170.826 26.6426 171.055 26.8651C172.306 28.0845 174.064 28.694 176.327 28.6935C177.965 28.6994 179.577 28.279 181 27.4743C182.455 26.6586 183.582 25.7687 184.381 24.8047C184.79 24.334 184.995 23.671 184.996 22.8155C185.014 22.447 184.929 22.0806 184.75 21.757ZM165.279 9.66944C165.49 7.75955 165.512 7.17066 166 5.31092C166.411 3.86754 166.822 3.14826 167.232 3.15311C167.427 3.15311 167.593 3.37558 167.734 3.82052C167.895 4.43777 168.016 5.07828 167.945 5.71079C167.567 9.06601 167.065 11.4383 164.65 16.6576C164.769 14.1123 164.979 12.0003 165.279 9.66944ZM145.244 22.3997C145.102 23.1975 144.781 23.9535 144.304 24.6113L144.296 24.6222C143.866 25.1696 143.417 25.4452 142.958 25.4452C142.746 25.4564 142.535 25.4189 142.34 25.3355C142.145 25.2521 141.973 25.1252 141.836 24.9646C141.566 24.6447 141.431 24.1533 141.432 23.4902C141.424 22.323 141.653 21.1661 142.105 20.0885C142.501 19.0976 143.128 18.2134 143.934 17.5075C144.621 16.8859 145.51 16.5272 146.44 16.4955L145.244 22.3997ZM159.473 24.9493C159.134 25.2517 158.7 25.4271 158.245 25.4452C157.166 25.4452 156.627 24.6651 156.627 23.1049C156.613 21.677 157.024 20.2766 157.807 19.0786C158.595 17.8713 159.581 17.0856 160.764 16.7216C160.722 17.8756 160.702 18.7098 160.702 19.224C160.691 20.5252 160.799 21.8246 161.025 23.1063C160.589 23.7838 160.067 24.4031 159.473 24.9493ZM173.916 18.0993C174.466 17.1784 175.139 16.7209 175.938 16.7267C176.109 16.7189 176.28 16.7479 176.439 16.8116C176.598 16.8753 176.742 16.9723 176.86 17.096C177.095 17.3671 177.216 17.7174 177.199 18.0746C177.199 18.8627 176.832 19.5577 176.099 20.1597C175.366 20.7617 174.364 21.211 173.093 21.5076V21.4349C173.059 20.2712 173.342 19.1199 173.914 18.1029L173.916 18.0993Z" fill="white"/>
<path d="M114.072 16.0484C113.937 14.7579 112.778 13.9466 111.617 13.9545C109.793 13.9684 108.815 14.8648 107.344 16.7849C106.338 18.1603 105.531 19.6684 104.946 21.2655C105.011 20.4691 105.119 19.6768 105.27 18.8918C105.399 18.2491 105.572 17.5 105.788 16.6445C106.111 15.4479 106.272 14.6779 106.273 14.3348C106.286 14.2198 106.27 14.1031 106.225 13.9963C106.179 13.8895 106.107 13.7962 106.015 13.7255C105.734 13.5978 105.425 13.5428 105.117 13.5656C104.326 13.5656 103.706 13.7139 103.257 14.0105C102.786 14.3389 102.449 14.8222 102.304 15.3744C101.633 17.505 101.24 19.712 101.135 21.9417C100.434 22.7945 99.6798 23.6035 98.8777 24.3641C98.2912 24.889 97.7992 25.1522 97.3908 25.1522C97.2703 25.155 97.1507 25.1302 97.0413 25.0798C96.932 25.0294 96.8358 24.9546 96.7603 24.8614C96.5897 24.6415 96.5036 24.3686 96.5176 24.0915C96.5176 23.1274 96.7652 21.4165 97.2603 18.9587C97.5849 17.2652 97.7472 16.196 97.7472 15.751C97.7472 15.0095 97.2185 14.6387 96.1613 14.6387C95.6842 14.6375 95.208 14.6805 94.7389 14.7674C94.6805 14.4147 94.5416 14.08 94.3328 13.7888C94.1705 13.6061 93.8528 13.5147 93.3796 13.5147C91.8587 13.5265 90.3805 14.0157 89.1572 14.912C87.8097 15.8676 86.7164 17.1336 85.9716 18.601C85.4214 19.6436 85.0538 20.7712 84.8843 21.9358C82.978 23.8508 81.7661 24.7836 81.1942 24.7836C80.5636 24.7836 80.241 24.3328 80.241 23.4437C80.241 22.9755 80.343 22.3117 80.5438 21.4705C80.7638 20.6134 81.1025 19.1993 81.5454 17.2654C82.0095 15.3141 82.2448 13.5932 82.2448 12.1501C82.2448 8.81738 80.895 7.19684 78.1185 7.19684C76.1741 7.19684 74.4665 8.18851 73.042 10.1442L72.8953 10.3485V9.83158C72.9207 9.02693 72.8652 8.22177 72.7296 7.42804C72.3322 4.84273 70.8182 3.58716 68.1011 3.58716C65.6295 3.58716 63.5553 5.12191 61.9284 8.14779L61.7943 8.39716L61.7737 8.11508C61.7297 7.50219 61.6623 6.91403 61.5743 6.37021C61.2238 4.54538 60.0918 3.65695 58.1152 3.65695C56.5813 3.65695 55.2609 4.05318 54.189 4.83328C53.0804 5.58793 52.5195 6.56869 52.5195 7.74865C52.5195 8.56147 52.8348 8.56147 52.9382 8.56147C53.2534 8.56813 53.5633 8.48047 53.8275 8.30992C54.0915 8.13543 54.3481 7.94641 54.5893 7.75156C54.8598 7.5509 55.1157 7.3626 55.3613 7.18594C55.6313 7.00372 55.9505 6.90643 56.2771 6.90676C57.2405 6.90676 57.7288 7.83663 57.7288 9.66946C57.7288 9.94209 57.5205 11.1606 57.0931 13.394C55.92 19.501 55.3239 23.6603 55.3239 25.7651C55.3239 27.8008 55.8584 28.8302 56.912 28.8302C57.3267 28.8336 57.7369 28.7454 58.113 28.5721C58.5052 28.3991 58.9195 28.2086 59.3484 28.0094C60.2282 27.5848 60.6681 26.74 60.6681 25.4997C60.6681 24.8897 60.4555 23.5586 60.0354 21.5418V21.5316L60.0698 20.8918C60.2047 20.1968 60.3961 19.3818 60.6402 18.4577C61.5736 14.8866 62.6447 12.214 63.8222 10.5157C65.0129 8.79993 66.2417 7.92968 67.4639 7.92968C68.1648 7.92968 68.637 8.21395 68.876 8.77522C69.1231 9.31031 69.2492 10.057 69.2492 10.9919C69.2272 12.824 68.6751 15.6398 67.6098 19.3607C67.211 20.7668 66.84 22.1147 66.5101 23.3659C66.1801 24.6171 66.0115 25.608 66.0115 26.3263C66.0115 27.0446 66.1325 27.651 66.3708 28.1439C66.6024 28.6027 66.95 28.8266 67.4324 28.8266C68.2716 28.8285 69.0833 28.5295 69.7177 27.9847C70.4076 27.4074 70.7574 26.7706 70.7574 26.0944C70.7588 25.7659 70.7367 25.4377 70.6914 25.1122L70.5572 24.1853C70.6459 21.4771 71.4693 18.6795 73.0046 15.855C73.6725 14.6191 74.3976 13.5874 75.155 12.7906C75.9248 11.9829 76.6639 11.5728 77.3545 11.5728C77.7658 11.5728 78.0496 11.7335 78.1969 12.0505C78.3348 12.3238 78.4052 12.7259 78.4052 13.2442C78.3824 14.4395 77.9433 16.5304 77.0994 19.4596C76.7885 20.5603 76.4967 21.6298 76.2313 22.6374C75.9659 23.6451 75.8332 24.5597 75.8332 25.3659C75.8332 26.1373 76.1081 26.8549 76.6492 27.499C77.2071 28.1163 77.9843 28.4304 78.9573 28.4304C79.9486 28.4338 80.9287 28.2216 81.8284 27.8088C82.7167 27.4019 83.5416 26.8709 84.2779 26.2318C84.5467 25.9965 84.8029 25.7475 85.0456 25.4859C85.2306 26.1275 85.5449 26.7253 85.9694 27.2431C86.3547 27.7143 86.8455 28.09 87.4028 28.3403C87.9602 28.5905 88.5686 28.7085 89.18 28.6848C90.8853 28.6848 92.2972 27.7867 93.4156 25.9905C93.6731 26.7578 94.1391 27.4398 94.7624 27.9614C95.3068 28.4263 96.0008 28.6829 96.7193 28.6848C97.6479 28.6848 98.6074 28.3104 99.5977 27.5616C100.191 27.1058 100.753 26.61 101.277 26.0777C101.339 26.5301 101.45 26.9744 101.608 27.4031C101.94 28.2573 102.519 28.687 103.331 28.687C104 28.687 104.491 28.5089 104.803 28.1577C105.114 27.8066 105.389 27.1253 105.628 26.1221C105.941 24.848 106.363 23.6027 106.889 22.3997C107.309 21.4015 108.165 20.4505 108.789 19.5643C109.48 18.6191 109.924 18.1866 111.062 18.0375C111.76 17.9466 111.76 17.9466 112.511 17.9648C113.177 17.9772 114.211 17.3832 114.072 16.0484ZM92.6362 22.3997C92.4955 23.1975 92.1749 23.9535 91.6984 24.6113V24.6222C91.2681 25.1697 90.815 25.4452 90.3523 25.4452C90.1406 25.4563 89.9292 25.4187 89.7346 25.3353C89.54 25.2519 89.3675 25.1251 89.2306 24.9646C88.9612 24.6447 88.8266 24.1533 88.8266 23.4902C88.8184 22.323 89.0473 21.1661 89.4996 20.0885C89.8967 19.0985 90.5222 18.2146 91.326 17.5075C92.0149 16.8865 92.9037 16.5279 93.8342 16.4955L92.6362 22.3997Z" fill="white"/>
<path d="M30.3498 0.969843C24.8385 1.93679 20.9314 5.61627 17.0176 9.29938C15.7712 10.4721 14.5248 11.6448 13.2278 12.7309C12.6985 12.491 11.9697 12.3907 11.3751 12.3085C11.098 12.2707 10.8509 12.2358 10.6654 12.1944C7.78325 11.9581 4.50227 12.691 2.47649 14.8531C-0.744365 18.4417 -0.676179 23.986 4.9737 24.7727C6.29689 25.0071 7.6551 24.9615 8.95927 24.6389C9.00266 24.8119 9.06281 24.9804 9.1389 25.142C9.18362 25.2445 9.22761 25.347 9.26354 25.4517C9.48031 25.997 9.66802 26.5532 9.82588 27.1181C10.0722 27.9381 10.3178 28.7582 10.7372 29.4983C10.7971 29.5791 10.874 29.6459 10.9627 29.694C11.0514 29.7421 11.1496 29.7704 11.2505 29.7768C11.3127 29.8456 11.3884 29.9011 11.473 29.94C11.5576 29.9789 11.6492 30.0003 11.7424 30.0029C16.0156 28.1532 20.5029 26.8346 25.1024 26.077C27.6803 25.5928 30.2618 25.355 32.8595 25.1158C34.3368 24.9799 35.82 24.8432 37.3106 24.66C38.0694 24.6767 38.3502 24.0151 38.1669 23.5338C38.249 23.3797 38.2749 23.2023 38.2403 23.0314C38.1098 22.4905 37.947 21.9576 37.7879 21.4254L37.7065 21.1564C37.6654 21.0164 37.6239 20.8756 37.5819 20.734C37.4022 20.127 37.2219 19.5185 37.0804 18.8998C37.7402 18.5406 38.4228 17.7162 38.8891 17.1549C39.016 17.0022 39.1259 16.8692 39.2161 16.7696C40.0738 15.6702 40.6954 14.4084 41.0425 13.0617C43.1672 5.59809 37.9617 0.0159851 30.3498 0.969843ZM37.7945 16.0266C37.3597 16.5855 36.8555 17.0878 36.2937 17.5213C36.0684 17.4641 35.8381 17.4291 35.6059 17.4166C35.518 17.4094 35.4314 17.4014 35.3501 17.3919C36.0539 16.2221 36.4168 14.3784 36.3765 13.5946C36.4601 12.5819 34.9285 12.4314 34.82 13.4412C34.795 14.0571 34.7075 14.669 34.559 15.2675C34.3864 15.8778 34.0903 16.4467 33.6887 16.9397C33.5544 16.9904 33.4364 17.076 33.347 17.1876C33.3193 17.222 33.2948 17.2587 33.2737 17.2974C32.6725 17.2867 32.0718 17.2896 31.4715 17.3061C31.9305 16.2752 32.1842 15.0574 32.0706 14.5434C32.0054 13.9078 31.8747 13.2805 31.6805 12.6713C31.3586 11.7022 29.893 12.1675 30.1826 13.141C30.6958 14.5361 30.5492 16.2287 29.5711 17.4014C28.4039 17.4886 27.2418 17.626 26.0849 17.8136C24.6501 18.1073 23.2374 18.4984 21.8566 18.9841C21.7579 19.0145 21.6662 19.0638 21.5868 19.1293C21.5073 19.1948 21.4417 19.2752 21.3935 19.3658C21.3454 19.4565 21.3157 19.5557 21.3063 19.6577C21.2968 19.7597 21.3077 19.8626 21.3383 19.9605C21.3689 20.0583 21.4186 20.1493 21.4847 20.2281C21.5508 20.3069 21.6318 20.372 21.7232 20.4197C21.9079 20.5161 22.1236 20.5358 22.3229 20.4745C22.6265 20.3836 22.9293 20.2891 23.2321 20.1953C23.9806 19.9627 24.7278 19.73 25.4903 19.5446C26.9288 19.2087 28.3233 19.0633 29.7801 18.9761C29.878 18.9899 29.9777 18.9842 30.0734 18.9594C30.4231 18.9405 30.7765 18.9237 31.1357 18.9092C32.5889 18.7907 34.0413 18.8707 35.4864 18.9652C35.5011 19.3338 35.6331 19.7518 35.7533 20.1284C35.8212 20.329 35.8787 20.5328 35.9256 20.7391C36.0503 21.1484 36.1632 21.5614 36.2761 21.9751C36.3816 22.3597 36.4872 22.7443 36.6016 23.1252C35.3039 23.275 34.0017 23.4022 32.6996 23.5287C29.3915 23.8508 26.0797 24.1729 22.8288 24.8817C20.441 25.3607 18.0858 25.9877 15.7771 26.7589H15.7705C14.4552 27.1762 13.1267 27.5979 11.9191 28.2646C11.7329 27.7644 11.5687 27.2555 11.4059 26.7458C11.1207 25.8632 10.8362 24.9799 10.441 24.146C11.3487 23.8348 12.4045 23.3979 12.0657 22.5153C11.9745 22.326 11.812 22.1799 11.6131 22.1083C11.4143 22.0368 11.195 22.0456 11.0026 22.1328C8.47537 23.4771 4.91285 23.9918 2.59453 21.9991C1.0358 20.0659 2.40831 17.1396 3.96998 15.6107C6.06687 13.8367 9.00399 13.4696 11.6684 13.9669C11.2421 14.2844 10.8083 14.5887 10.367 14.88C9.49229 15.4617 10.3494 16.7398 11.2263 16.209C13.6743 14.6823 15.7551 12.696 17.8373 10.7084C19.1475 9.45714 20.4592 8.20521 21.8625 7.06741C25.0401 4.39922 29.1672 1.92516 33.4863 2.55985C35.6397 2.99606 37.9551 3.96446 38.9742 6.02413C40.6869 9.14089 39.9603 13.2951 37.7945 16.0266Z" fill="white"/>
<path d="M19.433 22.05C17.8051 22.4006 16.2106 22.8895 14.6673 23.5113L14.4686 23.5891C13.764 23.861 12.7295 24.2601 13.2222 25.1355C13.6878 25.7375 14.3132 25.411 14.9217 25.0926C15.2084 24.9435 15.4907 24.7952 15.7509 24.748C16.466 24.4676 17.1956 24.2249 17.9365 24.0209C18.408 23.8981 18.8831 23.7825 19.356 23.6676L19.9007 23.5346C20.8766 23.2285 20.4176 21.7534 19.433 22.05Z" fill="white"/>
</g>
<defs>
<clipPath id="clip0_330_29191">
<rect width="184.667" height="30" fill="white" transform="translate(0.329102)"/>
</clipPath>
</defs>
</svg>
