<svg width="20" height="20" viewBox="0 0 20 20" fill="none" xmlns="http://www.w3.org/2000/svg">
<path d="M14.35 1.66675H7.46671C7.13337 1.66675 6.81669 1.78342 6.55835 1.98342L4.73335 3.44175C4.00002 4.02509 4.00002 5.1334 4.73335 5.71674L6.55835 7.17507C6.81669 7.3834 7.14171 7.49174 7.46671 7.49174H14.35C15.1583 7.49174 15.8083 6.84174 15.8083 6.03341V3.11674C15.8083 2.31674 15.1583 1.66675 14.35 1.66675Z" stroke="#A9A9A9" stroke-width="1.5" stroke-linecap="round" stroke-linejoin="round"/>
<path d="M5.66665 10H12.55C12.8833 10 13.2 10.1167 13.4583 10.3167L15.2833 11.775C16.0167 12.3583 16.0167 13.4667 15.2833 14.05L13.4583 15.5083C13.2 15.7167 12.875 15.825 12.55 15.825H5.66665C4.85831 15.825 4.20831 15.175 4.20831 14.3667V11.45C4.20831 10.65 4.85831 10 5.66665 10Z" stroke="#A9A9A9" stroke-width="1.5" stroke-linecap="round" stroke-linejoin="round"/>
<path d="M10 10V7.5" stroke="#A9A9A9" stroke-width="1.5" stroke-linecap="round" stroke-linejoin="round"/>
<path d="M10 18.3333V15.8333" stroke="#A9A9A9" stroke-width="1.5" stroke-linecap="round" stroke-linejoin="round"/>
<path d="M7.5 18.3333H12.5" stroke="#A9A9A9" stroke-width="1.5" stroke-linecap="round" stroke-linejoin="round"/>
</svg>
