<svg width="33" height="32" viewBox="0 0 33 32" fill="none" xmlns="http://www.w3.org/2000/svg">
<rect x="0.40918" width="32" height="32" rx="16" fill="#9647FB"/>
<path d="M17.966 17.05L15.626 19.552H20.576V22H11.9V19.786L16.04 15.448C16.544 14.92 16.826 14.62 16.886 14.548C17.042 14.368 17.222 14.086 17.426 13.702C17.63 13.33 17.732 12.988 17.732 12.676C17.732 12.172 17.558 11.764 17.21 11.452C16.862 11.128 16.424 10.966 15.896 10.966C14.96 10.966 13.964 11.458 12.908 12.442L11.45 10.534C12.83 9.154 14.384 8.464 16.112 8.464C17.384 8.464 18.422 8.848 19.226 9.616C20.042 10.372 20.45 11.344 20.45 12.532C20.45 13.816 19.622 15.322 17.966 17.05Z" fill="#E1C9FF"/>
</svg>
