<svg width="33" height="32" viewBox="0 0 33 32" fill="none" xmlns="http://www.w3.org/2000/svg">
<rect x="0.40918" width="32" height="32" rx="16" fill="#9647FB"/>
<path d="M15.572 22.216C14.06 22.216 12.614 21.778 11.234 20.902L12.35 18.778C13.442 19.438 14.468 19.768 15.428 19.768C16.1 19.768 16.628 19.618 17.012 19.318C17.396 19.006 17.588 18.598 17.588 18.094C17.588 17.602 17.396 17.206 17.012 16.906C16.64 16.594 16.148 16.438 15.536 16.438H13.844V14.062H15.302C15.914 14.062 16.4 13.918 16.76 13.63C17.132 13.342 17.318 12.964 17.318 12.496C17.318 12.028 17.144 11.656 16.796 11.38C16.46 11.104 16.016 10.966 15.464 10.966C14.648 10.966 13.766 11.308 12.818 11.992L11.54 10.084C12.08 9.58 12.722 9.184 13.466 8.896C14.222 8.608 14.996 8.464 15.788 8.464C16.976 8.464 17.978 8.8 18.794 9.472C19.598 10.132 20 10.954 20 11.938C20 12.634 19.79 13.252 19.37 13.792C18.962 14.32 18.422 14.698 17.75 14.926V14.998C18.566 15.178 19.202 15.568 19.658 16.168C20.126 16.756 20.36 17.458 20.36 18.274C20.36 19.426 19.916 20.374 19.028 21.118C18.152 21.85 17 22.216 15.572 22.216Z" fill="#E1C9FF"/>
</svg>
