<svg width="33" height="32" viewBox="0 0 33 32" fill="none" xmlns="http://www.w3.org/2000/svg">
<rect x="0.40918" width="32" height="32" rx="16" fill="#01CF8E"/>
<path d="M23.9092 14.3125C23.6017 14.3125 23.3467 14.0575 23.3467 13.75V12.25C23.3467 10.315 22.0942 9.0625 20.1592 9.0625H12.6592C10.7242 9.0625 9.47168 10.315 9.47168 12.25V13.75C9.47168 14.0575 9.21668 14.3125 8.90918 14.3125C8.60168 14.3125 8.34668 14.0575 8.34668 13.75V12.25C8.34668 9.67 10.0792 7.9375 12.6592 7.9375H20.1592C22.7392 7.9375 24.4717 9.67 24.4717 12.25V13.75C24.4717 14.0575 24.2167 14.3125 23.9092 14.3125Z" fill="#DCFBF1"/>
<path d="M20.1592 24.0625H12.6592C10.0792 24.0625 8.34668 22.33 8.34668 19.75V18.25C8.34668 17.9425 8.60168 17.6875 8.90918 17.6875C9.21668 17.6875 9.47168 17.9425 9.47168 18.25V19.75C9.47168 21.685 10.7242 22.9375 12.6592 22.9375H20.1592C22.0942 22.9375 23.3467 21.685 23.3467 19.75V18.25C23.3467 17.9425 23.6017 17.6875 23.9092 17.6875C24.2167 17.6875 24.4717 17.9425 24.4717 18.25V19.75C24.4717 22.33 22.7392 24.0625 20.1592 24.0625Z" fill="#DCFBF1"/>
<path d="M19.7093 13.1575L16.8893 11.635C16.5893 11.4775 16.2368 11.4775 15.9368 11.635L13.1093 13.1575C12.9068 13.27 12.7793 13.4875 12.7793 13.7275C12.7793 13.975 12.9068 14.1925 13.1093 14.305L15.9293 15.8275C16.0793 15.91 16.2443 15.9475 16.4093 15.9475C16.5743 15.9475 16.7393 15.91 16.8893 15.8275L19.7093 14.305C19.9118 14.1925 20.0393 13.975 20.0393 13.7275C20.0393 13.4875 19.9118 13.27 19.7093 13.1575Z" fill="#DCFBF1"/>
<path d="M15.4642 16.3524L12.8392 15.0399C12.6367 14.9424 12.4042 14.9499 12.2092 15.0699C12.0217 15.1899 11.9092 15.3924 11.9092 15.6174V18.0999C11.9092 18.5274 12.1492 18.9174 12.5317 19.1049L15.1567 20.4174C15.2467 20.4624 15.3442 20.4849 15.4492 20.4849C15.5692 20.4849 15.6817 20.4549 15.7867 20.3874C15.9817 20.2674 16.0942 20.0649 16.0942 19.8399V17.3574C16.0867 16.9299 15.8542 16.5474 15.4642 16.3524Z" fill="#DCFBF1"/>
<path d="M20.6016 15.0699C20.4066 14.9499 20.1741 14.9424 19.9716 15.0399L17.3466 16.3524C16.9641 16.5474 16.7241 16.9299 16.7241 17.3574V19.8399C16.7241 20.0649 16.8366 20.2674 17.0316 20.3874C17.1366 20.4549 17.2491 20.4849 17.3691 20.4849C17.4666 20.4849 17.5641 20.4624 17.6616 20.4174L20.2866 19.1049C20.6691 18.9099 20.9091 18.5274 20.9091 18.0999V15.6174C20.9091 15.3924 20.7966 15.1899 20.6016 15.0699Z" fill="#DCFBF1"/>
</svg>
