<svg width="33" height="32" viewBox="0 0 33 32" fill="none" xmlns="http://www.w3.org/2000/svg">
<rect x="0.40918" width="32" height="32" rx="16" fill="#01CF8E"/>
<path d="M14.3991 16.96H16.7166V22.36C16.7166 23.155 17.7066 23.53 18.2316 22.93L23.9091 16.48C24.4041 15.9175 24.0066 15.04 23.2566 15.04H20.9391V9.63998C20.9391 8.84498 19.9491 8.46998 19.4241 9.06998L13.7466 15.52C13.2591 16.0825 13.6566 16.96 14.3991 16.96Z" fill="#DCFBF1"/>
<path d="M13.7842 10.5625H8.53418C8.22668 10.5625 7.97168 10.3075 7.97168 10C7.97168 9.6925 8.22668 9.4375 8.53418 9.4375H13.7842C14.0917 9.4375 14.3467 9.6925 14.3467 10C14.3467 10.3075 14.0917 10.5625 13.7842 10.5625Z" fill="#DCFBF1"/>
<path d="M13.0342 22.5625H8.53418C8.22668 22.5625 7.97168 22.3075 7.97168 22C7.97168 21.6925 8.22668 21.4375 8.53418 21.4375H13.0342C13.3417 21.4375 13.5967 21.6925 13.5967 22C13.5967 22.3075 13.3417 22.5625 13.0342 22.5625Z" fill="#DCFBF1"/>
<path d="M10.7842 16.5625H8.53418C8.22668 16.5625 7.97168 16.3075 7.97168 16C7.97168 15.6925 8.22668 15.4375 8.53418 15.4375H10.7842C11.0917 15.4375 11.3467 15.6925 11.3467 16C11.3467 16.3075 11.0917 16.5625 10.7842 16.5625Z" fill="#DCFBF1"/>
</svg>
