<svg width="187" height="18" viewBox="0 0 187 18" fill="none" xmlns="http://www.w3.org/2000/svg">
<g opacity="0.5" clip-path="url(#clip0_330_29179)">
<path d="M19.656 13.5599L16.5204 16.8387C16.4522 16.9099 16.3698 16.9667 16.2782 17.0056C16.1865 17.0444 16.0877 17.0645 15.9877 17.0645H1.119C1.04806 17.0645 0.978657 17.0442 0.919331 17.0063C0.860004 16.9684 0.81334 16.9144 0.785061 16.851C0.756783 16.7876 0.748126 16.7175 0.760157 16.6493C0.772188 16.5812 0.804379 16.5179 0.852779 16.4673L3.98836 13.1886C4.05651 13.1173 4.13896 13.0605 4.2306 13.0217C4.32223 12.9828 4.42109 12.9628 4.52101 12.9628H19.3898C19.4607 12.9628 19.5301 12.983 19.5894 13.0209C19.6487 13.0588 19.6954 13.1128 19.7237 13.1763C19.752 13.2397 19.7606 13.3098 19.7486 13.3779C19.7366 13.4461 19.7044 13.5093 19.656 13.5599ZM16.5204 6.95718C16.4522 6.88594 16.3698 6.82912 16.2782 6.79028C16.1865 6.75143 16.0877 6.73139 15.9877 6.73139H1.119C1.04806 6.73139 0.978657 6.7516 0.919331 6.78952C0.860004 6.82744 0.81334 6.88144 0.785061 6.94487C0.756783 7.00829 0.748126 7.07839 0.760157 7.14654C0.772188 7.21469 0.804379 7.27794 0.852779 7.3285L3.98836 10.6073C4.05651 10.6785 4.13896 10.7353 4.2306 10.7742C4.32223 10.813 4.42109 10.8331 4.52101 10.8331H19.3898C19.4606 10.833 19.5298 10.8127 19.589 10.7748C19.6482 10.7369 19.6948 10.683 19.7231 10.6197C19.7513 10.5564 19.76 10.4864 19.7481 10.4184C19.7362 10.3503 19.7042 10.2871 19.656 10.2366L16.5204 6.95718ZM1.12001 4.60167H15.9888C16.0887 4.60167 16.1875 4.58163 16.2792 4.54278C16.3708 4.50394 16.4533 4.44713 16.5214 4.37589L19.657 1.09711C19.7054 1.04655 19.7376 0.983296 19.7496 0.915142C19.7616 0.846987 19.753 0.776894 19.7247 0.713468C19.6964 0.650043 19.6498 0.596057 19.5904 0.558133C19.5311 0.520209 19.4617 0.500002 19.3908 0.5H4.52202C4.42209 0.500001 4.32324 0.520047 4.23161 0.558892C4.13997 0.597736 4.05752 0.654551 3.98937 0.725793L0.853792 4.00456C0.80545 4.05506 0.773278 4.11823 0.761213 4.18629C0.749148 4.25435 0.757717 4.32437 0.78587 4.38776C0.814024 4.45115 0.860534 4.50514 0.919707 4.54314C0.978881 4.58114 1.04814 4.60148 1.119 4.60167H1.12001Z" fill="white"/>
<path d="M28.3291 15.9992H31.202V10.4363H42.0426V7.56291H31.202V4.87335H42.0426V2H28.3291V15.9992Z" fill="white"/>
<path d="M56.1454 2H47.5877C46.7905 2.00065 46.0261 2.31762 45.4624 2.88133C44.8987 3.44504 44.5817 4.2094 44.5811 5.00661V12.9938C44.5819 13.7907 44.8989 14.5547 45.4624 15.1181C46.026 15.6815 46.79 15.9984 47.5869 15.9992H56.1446C56.9414 15.9983 57.7053 15.6814 58.2687 15.118C58.8322 14.5545 59.1491 13.7906 59.15 12.9938V5.00661C59.1493 4.20975 58.8326 3.4457 58.2693 2.88205C57.7061 2.3184 56.9422 2.00119 56.1454 2ZM56.2774 4.87335V13.1258H47.454V4.87335H56.2774Z" fill="white"/>
<path d="M73.3907 10.7117C73.3899 11.3519 73.1353 11.9657 72.6825 12.4183C72.2298 12.871 71.616 13.1256 70.9758 13.1262H66.9806C66.3406 13.1251 65.7272 12.8704 65.2747 12.4178C64.8223 11.9652 64.5678 11.3517 64.5669 10.7117V2H61.6943V11.2822C61.6957 12.5326 62.193 13.7314 63.077 14.6156C63.9611 15.4999 65.1597 15.9974 66.41 15.9992H71.5447C72.7956 15.9982 73.9951 15.501 74.8799 14.6167C75.7646 13.7324 76.2624 12.5332 76.2641 11.2822V2H73.3907V10.7117Z" fill="white"/>
<path d="M90.5071 13.1258H89.9729L84.5824 2.98903C84.4238 2.69007 84.1867 2.44001 83.8966 2.26574C83.6065 2.09148 83.2744 1.9996 82.936 2H80.6739C80.1796 2.00065 79.7057 2.19733 79.3562 2.54692C79.0067 2.8965 78.8101 3.37043 78.8096 3.86476V15.9992H81.6821V4.87417H82.3305L87.7189 15.0106C87.8773 15.3097 88.1144 15.5599 88.4045 15.7342C88.6946 15.9086 89.0268 16.0005 89.3653 16H91.5141C92.0085 15.9996 92.4825 15.803 92.8322 15.4535C93.1819 15.104 93.3786 14.63 93.3792 14.1356V2H90.5059L90.5071 13.1258Z" fill="white"/>
<path d="M105.777 2H95.9248V15.9992H105.777C107.028 15.9982 108.227 15.501 109.112 14.6167C109.997 13.7324 110.495 12.5332 110.496 11.2822V6.71814C110.495 5.467 109.997 4.26749 109.112 3.38291C108.228 2.49833 107.028 2.00097 105.777 2ZM98.7977 4.87335H105.207C105.847 4.8741 106.46 5.12873 106.913 5.58137C107.366 6.03401 107.62 6.64771 107.621 7.28784V10.7117C107.62 11.3519 107.366 11.9656 106.913 12.4182C106.46 12.8708 105.847 13.1255 105.207 13.1262H98.7977V4.87335Z" fill="white"/>
<path d="M125.176 2H115.475C114.829 2.00075 114.21 2.25758 113.754 2.71413C113.297 3.17068 113.041 3.78967 113.04 4.43528V15.9992H115.913V11.4351H124.736V15.9992H127.61V4.43609C127.609 3.79052 127.353 3.17151 126.896 2.71483C126.44 2.25815 125.821 2.00108 125.176 2ZM124.738 4.87335V8.56172H115.914V4.87335H124.738Z" fill="white"/>
<path d="M130.157 4.87335H135.72V15.9992H138.593V4.87335H144.156V2H130.157V4.87335Z" fill="white"/>
<path d="M149.718 2H146.845V15.9992H149.718V2Z" fill="white"/>
<path d="M164.134 2H155.576C154.779 2.00065 154.014 2.31762 153.451 2.88133C152.887 3.44504 152.57 4.2094 152.569 5.00661V12.9938C152.57 13.7907 152.887 14.5547 153.451 15.1181C154.014 15.6815 154.778 15.9984 155.575 15.9992H164.133C164.93 15.9983 165.693 15.6814 166.257 15.118C166.82 14.5545 167.137 13.7906 167.138 12.9938V5.00661C167.138 4.20975 166.821 3.4457 166.258 2.88205C165.694 2.3184 164.93 2.00119 164.134 2ZM164.266 4.87335V13.1258H155.442V4.87335H164.266Z" fill="white"/>
<path d="M181.383 2V13.125H180.849L175.458 2.98944C175.3 2.69032 175.063 2.4401 174.773 2.26574C174.483 2.09139 174.15 1.99951 173.812 2H171.55C171.055 2.00065 170.582 2.19733 170.232 2.54692C169.883 2.8965 169.686 3.37043 169.685 3.86476V15.9992H172.558V4.87417H173.207L178.595 15.0106C178.753 15.3096 178.99 15.5597 179.281 15.734C179.571 15.9083 179.903 16.0003 180.241 16H182.39C182.885 15.9994 183.359 15.8029 183.708 15.4534C184.058 15.1039 184.254 14.63 184.255 14.1356V2H181.383Z" fill="white"/>
</g>
<defs>
<clipPath id="clip0_330_29179">
<rect width="186" height="17" fill="white" transform="translate(0.329102 0.5)"/>
</clipPath>
</defs>
</svg>
