<svg width="20" height="20" viewBox="0 0 20 20" fill="none" xmlns="http://www.w3.org/2000/svg">
<path d="M16.6667 2.91675H4.58333C4.33333 2.91675 4.08333 3.00008 3.91667 3.25008L2.66667 4.91675C2.25 5.50008 2.66667 6.25008 3.33333 6.25008H15.4167C15.6667 6.25008 15.9167 6.16675 16.0833 5.91675L17.3333 4.25008C17.75 3.66675 17.3333 2.91675 16.6667 2.91675Z" stroke="#A9A9A9" stroke-width="1.5" stroke-miterlimit="10"/>
<path d="M3.33333 8.33325H15.4167C15.6667 8.33325 15.9167 8.41658 16.0833 8.66658L17.3333 10.3333C17.75 10.9166 17.3333 11.6666 16.6667 11.6666H4.58333C4.33333 11.6666 4.08333 11.5833 3.91667 11.3333L2.66667 9.66659C2.25 9.08325 2.66667 8.33325 3.33333 8.33325Z" stroke="#A9A9A9" stroke-width="1.5" stroke-miterlimit="10"/>
<path d="M16.6667 13.75H4.58333C4.33333 13.75 4.08333 13.8333 3.91667 14.0833L2.66667 15.75C2.25 16.3333 2.66667 17.0833 3.33333 17.0833H15.4167C15.6667 17.0833 15.9167 17 16.0833 16.75L17.3333 15.0833C17.75 14.5 17.3333 13.75 16.6667 13.75Z" stroke="#A9A9A9" stroke-width="1.5" stroke-miterlimit="10"/>
</svg>
