<svg width="31" height="31" viewBox="0 0 31 31" fill="none" xmlns="http://www.w3.org/2000/svg">
<path d="M26.2498 9.00682C25.4542 9.35388 24.6102 9.58159 23.7461 9.68234C24.656 9.14671 25.3373 8.30387 25.6629 7.31073C24.8072 7.81085 23.8707 8.16302 22.8941 8.35195C22.2956 7.72555 21.5196 7.2905 20.6669 7.10314C19.8142 6.91579 18.924 6.98477 18.1116 7.30115C17.2991 7.61752 16.602 8.16672 16.1103 8.87759C15.6187 9.58846 15.3553 10.4282 15.3543 11.2882C15.354 11.6164 15.3915 11.9437 15.4662 12.2636C13.7324 12.1782 12.0363 11.735 10.4879 10.9627C8.93942 10.1903 7.57331 9.10612 6.47821 7.78046C5.92105 8.72524 5.75046 9.84341 6.00112 10.9076C6.25179 11.9717 6.9049 12.902 7.82761 13.5091C7.13546 13.4884 6.45842 13.3048 5.85325 12.9735C5.85325 12.9919 5.85325 13.0095 5.85325 13.0278C5.85338 14.0188 6.20177 14.9791 6.83931 15.746C7.47685 16.5129 8.3643 17.0392 9.35113 17.2355C8.70919 17.4075 8.03593 17.4337 7.38221 17.312C7.65988 18.1654 8.2018 18.9118 8.93205 19.4468C9.6623 19.9819 10.5443 20.2787 11.4545 20.2957C9.91022 21.4886 8.00296 22.1354 6.03981 22.1318C5.69224 22.132 5.34496 22.1121 4.99977 22.0721C6.99384 23.3329 9.3145 24.0022 11.6846 24C19.7041 24 24.0896 17.4612 24.0896 11.7908C24.0896 11.6049 24.085 11.4197 24.0772 11.2361C24.9303 10.626 25.666 9.87111 26.2498 9.00682V9.00682Z" fill="white"/>
</svg>
